<?xml version="1.0" encoding="UTF-8" standalone="no"?>
<!DOCTYPE svg PUBLIC "-//W3C//DTD SVG 1.1//EN" "http://www.w3.org/Graphics/SVG/1.1/DTD/svg11.dtd">
<svg width="100%" height="100%" viewBox="0 0 1080 1080" version="1.1" xmlns="http://www.w3.org/2000/svg" xmlns:xlink="http://www.w3.org/1999/xlink" xml:space="preserve" xmlns:serif="http://www.serif.com/" style="fill-rule:evenodd;clip-rule:evenodd;stroke-linejoin:round;stroke-miterlimit:2;">
    <g transform="matrix(1.24763,0,0,1.24763,254.628,-402.54)">
        <path d="M500.802,609.456C510.351,586.416 507.805,563.952 495.073,546.096C481.705,529.392 462.608,520.752 436.508,520.752C410.409,520.752 383.036,530.544 360.756,548.4C360.119,546.672 359.482,546.096 359.482,546.096C346.114,529.392 327.017,520.752 300.917,520.752C270.998,520.752 239.169,534.576 216.253,555.888C215.616,554.16 214.343,553.008 213.706,551.856C213.07,550.704 211.797,549.552 211.16,547.824C201.611,535.728 181.877,520.752 145.593,520.752C125.859,520.752 109.308,528.24 96.576,539.76C83.845,551.28 76.206,566.832 76.206,584.688C76.206,602.544 83.845,618.096 96.576,629.616C109.308,641.136 125.859,648.048 145.593,648.048C158.324,648.048 168.509,638.832 168.509,627.312C168.509,615.792 158.324,606.576 145.593,606.576C132.224,606.576 121.403,596.784 121.403,584.688C121.403,572.592 132.861,562.224 145.593,562.224C155.778,562.224 162.78,563.376 166.6,565.68C170.419,568.56 172.965,570.288 173.602,572.016C183.787,585.264 181.877,614.64 167.236,651.504L95.94,830.064C83.845,862.32 50.743,883.056 14.458,883.056C-9.096,883.056 -30.739,874.416 -46.017,860.016C-61.931,846.192 -71.48,826.032 -71.48,804.72C-71.48,783.408 -61.931,763.824 -46.017,749.424C-30.739,735.6 -9.096,726.96 14.458,726.96C38.011,726.96 57.745,734.448 74.296,749.424C78.752,753.456 84.481,755.184 90.847,755.184C96.576,755.184 102.305,752.88 106.761,748.848C116.31,740.208 115.673,728.112 106.125,719.472C81.298,697.008 49.47,686.064 14.458,686.064C-21.827,686.064 -54.929,699.312 -78.482,720.624C-102.036,741.936 -117.314,771.888 -117.314,804.72C-117.314,837.552 -102.036,867.504 -78.482,888.816C-54.929,910.128 -21.827,923.952 14.458,923.952C42.467,923.952 68.567,915.888 90.847,901.488C113.127,887.664 129.042,867.504 138.59,843.888L209.887,665.328L218.162,642.288L230.894,609.456C235.987,596.208 246.808,584.688 259.54,576.048C272.271,567.408 287.549,562.224 300.917,562.224C307.92,562.224 316.832,563.376 321.924,569.712C326.38,575.472 327.017,584.112 322.561,595.056L204.158,891.12C199.702,902.064 206.067,913.584 218.162,917.616C220.072,918.192 222.618,918.768 225.801,918.768C235.35,918.768 244.262,914.16 247.445,905.52L363.302,614.64C365.212,612.336 365.848,610.608 366.485,609.456C371.577,596.208 382.399,584.688 395.131,576.048C407.862,567.408 423.14,562.224 436.508,562.224C443.511,562.224 452.423,563.376 457.515,569.712C461.971,575.472 462.608,584.112 458.152,595.056L339.749,891.12C336.566,900.336 334.656,909.552 334.656,918.192C334.656,938.928 344.205,957.936 359.482,971.184C374.124,985.008 395.131,993.648 418.047,993.648C430.779,993.648 440.964,984.432 440.964,973.488C440.964,961.968 430.779,952.752 418.047,952.752C397.04,952.752 379.853,937.2 379.853,918.192C379.853,914.16 380.489,909.552 382.399,905.52L383.036,905.52L500.802,609.456Z" style="fill:none;fill-rule:nonzero;stroke:rgb(243,238,206);stroke-width:104.2px;"/>
        <path d="M500.802,609.456C510.351,586.416 507.805,563.952 495.073,546.096C481.705,529.392 462.608,520.752 436.508,520.752C410.409,520.752 383.036,530.544 360.756,548.4C360.119,546.672 359.482,546.096 359.482,546.096C346.114,529.392 327.017,520.752 300.917,520.752C270.998,520.752 239.169,534.576 216.253,555.888C215.616,554.16 214.343,553.008 213.706,551.856C213.07,550.704 211.797,549.552 211.16,547.824C201.611,535.728 181.877,520.752 145.593,520.752C125.859,520.752 109.308,528.24 96.576,539.76C83.845,551.28 76.206,566.832 76.206,584.688C76.206,602.544 83.845,618.096 96.576,629.616C109.308,641.136 125.859,648.048 145.593,648.048C158.324,648.048 168.509,638.832 168.509,627.312C168.509,615.792 158.324,606.576 145.593,606.576C132.224,606.576 121.403,596.784 121.403,584.688C121.403,572.592 132.861,562.224 145.593,562.224C155.778,562.224 162.78,563.376 166.6,565.68C170.419,568.56 172.965,570.288 173.602,572.016C183.787,585.264 181.877,614.64 167.236,651.504L95.94,830.064C83.845,862.32 50.743,883.056 14.458,883.056C-9.096,883.056 -30.739,874.416 -46.017,860.016C-61.931,846.192 -71.48,826.032 -71.48,804.72C-71.48,783.408 -61.931,763.824 -46.017,749.424C-30.739,735.6 -9.096,726.96 14.458,726.96C38.011,726.96 57.745,734.448 74.296,749.424C78.752,753.456 84.481,755.184 90.847,755.184C96.576,755.184 102.305,752.88 106.761,748.848C116.31,740.208 115.673,728.112 106.125,719.472C81.298,697.008 49.47,686.064 14.458,686.064C-21.827,686.064 -54.929,699.312 -78.482,720.624C-102.036,741.936 -117.314,771.888 -117.314,804.72C-117.314,837.552 -102.036,867.504 -78.482,888.816C-54.929,910.128 -21.827,923.952 14.458,923.952C42.467,923.952 68.567,915.888 90.847,901.488C113.127,887.664 129.042,867.504 138.59,843.888L209.887,665.328L218.162,642.288L230.894,609.456C235.987,596.208 246.808,584.688 259.54,576.048C272.271,567.408 287.549,562.224 300.917,562.224C307.92,562.224 316.832,563.376 321.924,569.712C326.38,575.472 327.017,584.112 322.561,595.056L204.158,891.12C199.702,902.064 206.067,913.584 218.162,917.616C220.072,918.192 222.618,918.768 225.801,918.768C235.35,918.768 244.262,914.16 247.445,905.52L363.302,614.64C365.212,612.336 365.848,610.608 366.485,609.456C371.577,596.208 382.399,584.688 395.131,576.048C407.862,567.408 423.14,562.224 436.508,562.224C443.511,562.224 452.423,563.376 457.515,569.712C461.971,575.472 462.608,584.112 458.152,595.056L339.749,891.12C336.566,900.336 334.656,909.552 334.656,918.192C334.656,938.928 344.205,957.936 359.482,971.184C374.124,985.008 395.131,993.648 418.047,993.648C430.779,993.648 440.964,984.432 440.964,973.488C440.964,961.968 430.779,952.752 418.047,952.752C397.04,952.752 379.853,937.2 379.853,918.192C379.853,914.16 380.489,909.552 382.399,905.52L383.036,905.52L500.802,609.456Z" style="fill:rgb(0,67,6);fill-rule:nonzero;"/>
    </g>
</svg>
