<?xml version="1.0" encoding="UTF-8" standalone="no"?>
<!DOCTYPE svg PUBLIC "-//W3C//DTD SVG 1.1//EN" "http://www.w3.org/Graphics/SVG/1.1/DTD/svg11.dtd">
<svg width="100%" height="100%" viewBox="0 0 6300 1000" version="1.1" xmlns="http://www.w3.org/2000/svg" xmlns:xlink="http://www.w3.org/1999/xlink" xml:space="preserve" xmlns:serif="http://www.serif.com/" style="fill-rule:evenodd;clip-rule:evenodd;stroke-linejoin:round;stroke-miterlimit:2;">
    <g transform="matrix(1.25271,0,0,1.25271,-84.0461,-2.72719)">
        <g transform="matrix(1.6364,0,0,1.6364,2048.17,-931.826)">
            <path d="M1468.66,863.052L1464.15,875.52C1458.87,890.4 1450.23,900.96 1441.11,908.64C1431.51,916.32 1421.43,920.16 1415.19,920.16C1411.83,920.16 1409.43,919.68 1408.47,918.72C1407.51,918.24 1407.03,917.28 1406.55,916.8C1404.63,913.92 1403.67,909.6 1403.67,903.84C1403.67,898.56 1404.63,892.8 1407.03,887.04L1459.83,741.6C1463.19,732.48 1458.87,722.88 1449.75,719.52C1440.63,716.16 1431.03,720.96 1427.67,730.08L1421.91,745.92C1421.43,745.44 1420.95,744.96 1420.95,744.48L1419.51,743.04C1407.99,726.72 1392.15,718.56 1371.51,718.56C1359.51,718.56 1347.51,721.44 1335.51,727.2C1310.55,738.72 1287.99,759.36 1269.75,786.24C1261.91,797.999 1254.52,811.798 1248.75,826.418C1247.93,827.628 1247.24,828.96 1246.71,830.4L1229.91,876.48C1226.55,885.6 1219.35,896.16 1208.31,904.8C1197.27,913.44 1182.87,920.16 1167.03,920.16C1159.83,920.16 1151.19,918.72 1145.91,912.96C1142.55,909.6 1142.07,904.32 1142.07,898.56C1165.11,877.44 1182.39,851.52 1191.99,824.64L1222.23,741.6C1225.59,732.48 1221.27,722.88 1212.15,719.52C1203.03,716.16 1193.43,720.96 1190.07,730.08L1159.83,813.12C1150.71,836.16 1135.83,858.24 1115.19,876.96L1114.71,877.44C1110.39,881.76 1105.59,885.12 1100.79,888.48C1081.59,903.36 1060.95,912 1040.31,917.28L1104.15,741.6C1107.51,732.48 1103.19,722.88 1094.07,719.52C1084.95,716.16 1075.35,720.96 1071.99,730.08L1036.99,825.942C1035.99,827.259 1035.16,828.751 1034.55,830.4L1018.23,876C1014.87,885.6 1008.15,896.16 999.033,905.28C989.913,914.4 979.833,920.64 968.793,920.64C965.433,920.64 963.513,920.16 962.553,919.68C961.593,919.2 960.633,918.24 960.153,917.76C956.313,912 956.793,899.52 961.113,888L992.313,801.6C996.633,789.6 996.153,779.04 991.353,769.44C987.033,760.32 979.833,753.6 973.113,749.28C966.393,744.96 959.673,742.08 957.753,741.6L933.273,731.52C934.713,723.36 934.713,716.64 934.233,709.44C933.753,696 929.433,686.88 925.113,680.64C920.793,674.88 915.033,672 911.193,670.08C903.033,666.72 894.873,667.2 886.713,671.04C870.873,678.72 864.633,695.04 866.073,708C867.513,721.44 874.713,736.32 894.393,749.76L887.193,770.88L862.233,839.52C861.78,840.749 861.475,841.987 861.31,843.217C852.624,864.666 835.577,883.016 814.233,896.64C791.193,911.04 763.353,920.16 735.993,920.16C731.673,920.16 725.913,919.2 719.193,917.76C705.753,914.4 695.673,900.96 696.153,878.4C734.553,876.96 772.473,863.52 803.193,839.04C833.433,816 851.193,786.72 851.193,762.24C851.193,752.16 847.833,740.64 839.193,732.48C830.553,724.32 816.633,718.56 796.953,718.56C773.433,718.56 747.993,730.56 725.433,750.72C702.873,770.88 683.673,799.2 672.153,830.4C671.19,832.938 670.259,835.555 669.378,838.241C665.056,848.814 657.213,865.09 646.233,880.32C630.873,900.96 609.753,919.68 582.393,919.68C555.033,919.68 550.713,907.2 550.713,893.76C550.713,887.04 552.153,879.84 555.033,872.16L603.513,738.72L665.913,738.72C675.033,738.72 683.193,731.04 683.193,721.92C683.193,712.32 675.033,704.64 665.913,704.64L615.993,704.64L638.553,641.28C641.913,632.16 637.593,622.56 628.473,619.2C619.353,615.84 609.753,620.64 606.393,629.76L579.033,704.64L547.833,704.64C538.233,704.64 530.553,712.32 530.553,721.92C530.553,731.04 538.233,738.72 547.833,738.72L566.553,738.72L534.628,826.512C533.968,827.557 533.404,828.695 532.953,829.92L516.633,875.04C512.793,884.64 506.073,895.2 497.433,904.32C488.793,913.44 477.753,919.68 467.673,919.68C464.313,919.68 461.913,919.2 460.953,918.72C459.993,918.24 459.513,917.28 459.033,916.8C455.193,911.04 455.673,898.56 459.513,887.04L492.633,796.8C499.833,776.16 498.873,756 487.833,740.64C477.753,725.76 461.913,718.56 441.273,718.56C422.073,718.56 402.393,725.76 385.593,738.72C385.113,738.24 384.633,737.28 384.633,736.32L383.193,734.4C375.513,723.84 364.953,718.56 351.033,718.56C341.433,718.56 333.753,726.24 333.753,735.84C333.753,744.96 341.433,752.64 351.033,752.64C353.433,752.64 354.873,753.12 354.873,754.08C355.833,755.52 356.313,758.4 356.313,761.76C356.313,765.6 355.353,769.92 353.913,774.24C353.433,774.72 353.433,775.2 353.433,775.68C353.433,776.16 353.433,777.12 352.953,777.6L351.513,780.96C351.033,782.4 350.553,783.84 350.073,785.28L296.793,931.2C293.433,940.32 297.753,949.92 306.873,953.28C309.273,953.76 311.673,954.24 313.113,954.24C320.313,954.24 326.553,950.4 328.953,943.2L382.233,796.8C386.553,784.8 395.193,773.76 406.233,765.6C417.273,757.92 429.753,752.64 441.273,752.64C447.513,752.64 455.193,754.08 459.513,760.32C463.833,766.08 463.833,774.24 460.473,785.28L427.353,875.04C423.993,884.16 422.073,894.72 422.073,905.76C422.073,916.8 424.473,927.36 430.713,936.48C438.873,947.52 451.833,954.24 467.673,954.24C488.313,954.24 506.073,943.68 519.993,930.24C521.436,928.846 522.833,927.416 524.185,925.956C524.969,927.257 525.812,928.526 526.713,929.76C534.393,940.8 550.233,954.24 582.393,954.24C614.006,954.24 641.909,939.398 666.557,910.169C668.476,915.534 671.089,920.657 674.553,925.44C687.993,944.64 708.633,954.24 735.993,954.24C771.033,954.24 805.593,943.2 833.913,924.96C862.233,906.72 884.313,881.28 895.353,851.04C895.744,849.977 896.025,848.907 896.201,847.841L919.833,782.4L922.713,773.76C923.673,770.88 924.633,768 925.593,765.6L944.793,773.28L945.753,773.76C949.113,775.2 957.753,779.04 960.153,784.32C961.113,785.28 961.113,787.2 959.673,789.6L928.473,876C925.113,885.12 922.713,895.68 923.193,906.72C923.193,917.76 925.593,928.32 931.833,937.44C939.993,948.96 953.433,955.2 968.793,955.2C980.286,955.2 990.927,952.073 1000.48,947.054C1004.32,951.845 1009.12,954.24 1014.87,954.24C1047.51,954.24 1081.11,943.2 1112.31,922.56C1113.75,926.4 1116.15,930.24 1119.51,934.56C1127.19,943.68 1140.63,954.24 1167.03,954.24C1190.07,954.24 1210.71,945.6 1227.51,933.12C1233.72,928.51 1239.27,923.376 1244.09,917.934C1253.07,938.722 1270.83,954.24 1298.55,954.24C1323.03,954.24 1348.47,941.28 1371.03,920.64C1372.47,926.4 1374.87,931.68 1378.23,936.48C1386.39,948.48 1398.87,954.24 1415.19,954.24C1435.83,954.24 1453.59,943.68 1467.51,930.24C1469.03,928.771 1470.5,927.262 1471.92,925.723C1473.03,927.927 1474.28,930.075 1475.67,932.16C1482.87,942.24 1496.31,954.24 1521.27,954.24C1545.27,954.24 1567.83,944.16 1589.43,923.52C1606.23,906.72 1619.67,886.56 1627.35,865.92L1631.44,854.553C1632.23,853.363 1632.95,852.032 1633.59,850.56L1654.71,789.12C1662.39,798.24 1671.51,806.88 1680.63,816L1697.43,832.8C1708.47,844.8 1717.59,856.32 1723.35,867.36C1728.63,878.88 1728.15,888.96 1720.47,899.04L1718.55,897.12C1717.59,896.64 1716.63,895.68 1716.15,895.2C1691.67,874.56 1667.19,877.92 1651.83,887.52C1636.95,897.6 1629.27,914.88 1633.59,929.76C1636.95,940.8 1644.63,947.04 1652.79,950.4C1660.95,953.76 1669.11,954.24 1674.39,954.24C1685.43,954.24 1699.83,953.28 1714.71,947.04C1719.99,950.88 1727.19,954.24 1738.23,954.24C1759.83,954.24 1779.03,943.2 1793.43,927.84C1807.83,912.48 1818.39,892.32 1824.15,873.6L1830.87,854.4C1832.31,850.08 1833.27,847.2 1833.75,845.76L1837.11,838.08C1840.47,828.96 1836.15,819.84 1827.03,816.48C1817.91,813.12 1810.23,817.44 1804.95,826.56C1804.47,827.04 1804.47,827.52 1803.99,828.48L1801.59,833.76C1799.67,839.04 1796.79,847.68 1791.51,863.04C1788.15,872.16 1783.35,883.68 1776.15,894.24C1768.47,904.8 1759.83,913.92 1748.79,917.76C1755.99,907.68 1760.31,897.6 1761.27,886.56C1762.71,868.8 1755.51,851.52 1744.47,835.68C1732.95,819.84 1718.55,804.96 1704.63,791.52C1693.11,780 1682.55,769.44 1675.35,759.84C1672.95,756.48 1671.03,753.6 1670.55,751.2C1669.59,748.8 1669.11,747.36 1669.59,746.4L1671.51,741.6C1674.87,732.48 1670.07,722.88 1660.95,719.52C1651.83,716.16 1642.23,720.96 1638.87,730.08L1605.89,825.272C1604.85,826.636 1603.99,828.192 1603.35,829.92L1594.71,853.92C1588.95,869.76 1578.39,885.6 1565.43,898.56C1555.35,908.16 1539.99,919.68 1521.27,919.68C1510.23,919.68 1506.39,915.84 1503.99,912.48C1500.63,907.68 1498.71,900.96 1498.71,892.32C1498.71,884.16 1500.63,875.04 1503.99,865.92L1585.59,641.28C1588.95,632.16 1584.63,622.56 1575.51,619.2C1566.39,615.84 1556.79,620.64 1553.43,629.76L1471.35,853.92C1470.38,856.824 1469.48,859.881 1468.66,863.052ZM181.113,954.24C202.233,954.24 222.393,947.52 238.713,935.52C255.033,924 267.513,907.2 274.713,887.52L347.193,687.36C349.593,681.12 351.993,675.84 355.353,671.04C361.113,661.44 366.873,655.68 370.713,651.84L373.593,649.44C379.833,645.6 382.713,637.44 380.793,630.24C378.393,623.04 371.673,618.24 363.993,618.24L237.273,618.24C222.393,618.24 209.433,624.48 199.833,634.08C190.233,643.68 184.473,656.64 184.473,671.52C184.473,686.4 190.233,699.36 199.833,708.96C209.433,718.56 222.393,724.32 237.273,724.32C251.673,724.32 264.153,719.04 274.713,708.48C278.073,705.12 279.993,701.28 279.993,696.48C279.993,687.36 271.833,679.2 262.713,679.2C257.913,679.2 253.593,681.12 250.233,684.48C246.873,687.84 242.553,689.76 237.273,689.76C227.193,689.76 219.033,681.6 219.033,671.52C219.033,661.44 227.193,652.8 237.273,652.8L326.073,652.8C321.753,659.04 317.913,666.24 314.553,675.36L242.553,876C233.433,902.88 208.473,919.68 181.113,919.68C163.353,919.68 147.033,912.48 135.513,900.48C123.513,888.96 116.313,872.64 116.313,854.88C116.313,837.12 123.513,820.8 135.513,808.8C147.033,797.28 163.353,790.08 181.113,790.08C197.913,790.08 214.233,796.8 226.233,808.32C229.593,811.68 233.913,813.6 238.713,813.6C247.833,813.6 255.513,805.44 255.513,795.84C255.513,791.52 253.593,787.2 250.233,783.84C231.513,765.12 207.513,755.52 181.113,755.52C153.753,755.52 128.793,767.04 111.033,784.8C93.273,802.56 81.753,827.52 81.753,854.88C81.753,882.24 93.273,907.2 111.033,924.96C128.793,942.72 153.753,954.24 181.113,954.24ZM1298.55,920.16C1289.91,920.16 1283.19,916.8 1278.39,910.08C1270.71,899.04 1266.39,875.52 1279.35,842.4C1288.95,815.52 1304.79,792.96 1322.07,777.12C1338.87,761.76 1356.63,752.64 1371.51,752.64C1380.15,752.64 1386.87,756 1391.67,762.72C1399.35,773.76 1403.19,797.28 1391.19,830.4C1381.59,857.28 1365.27,879.84 1348.47,895.2C1331.19,911.04 1312.47,920.16 1298.55,920.16ZM1674.39,919.68C1671.03,919.68 1668.63,919.68 1667.67,919.2C1669.11,917.76 1670.07,916.8 1673.43,915.36C1678.71,913.44 1683.99,914.4 1690.23,918.72C1685.91,919.2 1680.63,919.68 1674.39,919.68ZM704.457,843.774C722.915,841.813 739.022,837.051 752.313,830.88C765.273,824.64 774.873,817.92 782.073,812.16C806.553,793.44 817.113,773.28 817.113,762.24C817.113,760.8 817.113,758.4 814.713,756.48C813.273,755.52 811.353,754.56 808.953,753.6C806.073,753.12 802.233,752.64 796.953,752.64C782.073,752.64 764.313,761.76 747.513,777.12C730.867,792.379 715.557,813.873 705.873,839.462C705.715,840.122 705.515,840.782 705.273,841.44C705.037,842.148 704.764,842.928 704.457,843.774Z" style="fill:none;stroke:rgb(243,238,206);stroke-width:31.71px;"/>
            <path d="M1468.66,863.052L1464.15,875.52C1458.87,890.4 1450.23,900.96 1441.11,908.64C1431.51,916.32 1421.43,920.16 1415.19,920.16C1411.83,920.16 1409.43,919.68 1408.47,918.72C1407.51,918.24 1407.03,917.28 1406.55,916.8C1404.63,913.92 1403.67,909.6 1403.67,903.84C1403.67,898.56 1404.63,892.8 1407.03,887.04L1459.83,741.6C1463.19,732.48 1458.87,722.88 1449.75,719.52C1440.63,716.16 1431.03,720.96 1427.67,730.08L1421.91,745.92C1421.43,745.44 1420.95,744.96 1420.95,744.48L1419.51,743.04C1407.99,726.72 1392.15,718.56 1371.51,718.56C1359.51,718.56 1347.51,721.44 1335.51,727.2C1310.55,738.72 1287.99,759.36 1269.75,786.24C1261.91,797.999 1254.52,811.798 1248.75,826.418C1247.93,827.628 1247.24,828.96 1246.71,830.4L1229.91,876.48C1226.55,885.6 1219.35,896.16 1208.31,904.8C1197.27,913.44 1182.87,920.16 1167.03,920.16C1159.83,920.16 1151.19,918.72 1145.91,912.96C1142.55,909.6 1142.07,904.32 1142.07,898.56C1165.11,877.44 1182.39,851.52 1191.99,824.64L1222.23,741.6C1225.59,732.48 1221.27,722.88 1212.15,719.52C1203.03,716.16 1193.43,720.96 1190.07,730.08L1159.83,813.12C1150.71,836.16 1135.83,858.24 1115.19,876.96L1114.71,877.44C1110.39,881.76 1105.59,885.12 1100.79,888.48C1081.59,903.36 1060.95,912 1040.31,917.28L1104.15,741.6C1107.51,732.48 1103.19,722.88 1094.07,719.52C1084.95,716.16 1075.35,720.96 1071.99,730.08L1036.99,825.942C1035.99,827.259 1035.16,828.751 1034.55,830.4L1018.23,876C1014.87,885.6 1008.15,896.16 999.033,905.28C989.913,914.4 979.833,920.64 968.793,920.64C965.433,920.64 963.513,920.16 962.553,919.68C961.593,919.2 960.633,918.24 960.153,917.76C956.313,912 956.793,899.52 961.113,888L992.313,801.6C996.633,789.6 996.153,779.04 991.353,769.44C987.033,760.32 979.833,753.6 973.113,749.28C966.393,744.96 959.673,742.08 957.753,741.6L933.273,731.52C934.713,723.36 934.713,716.64 934.233,709.44C933.753,696 929.433,686.88 925.113,680.64C920.793,674.88 915.033,672 911.193,670.08C903.033,666.72 894.873,667.2 886.713,671.04C870.873,678.72 864.633,695.04 866.073,708C867.513,721.44 874.713,736.32 894.393,749.76L887.193,770.88L862.233,839.52C861.78,840.749 861.475,841.987 861.31,843.217C852.624,864.666 835.577,883.016 814.233,896.64C791.193,911.04 763.353,920.16 735.993,920.16C731.673,920.16 725.913,919.2 719.193,917.76C705.753,914.4 695.673,900.96 696.153,878.4C734.553,876.96 772.473,863.52 803.193,839.04C833.433,816 851.193,786.72 851.193,762.24C851.193,752.16 847.833,740.64 839.193,732.48C830.553,724.32 816.633,718.56 796.953,718.56C773.433,718.56 747.993,730.56 725.433,750.72C702.873,770.88 683.673,799.2 672.153,830.4C671.19,832.938 670.259,835.555 669.378,838.241C665.056,848.814 657.213,865.09 646.233,880.32C630.873,900.96 609.753,919.68 582.393,919.68C555.033,919.68 550.713,907.2 550.713,893.76C550.713,887.04 552.153,879.84 555.033,872.16L603.513,738.72L665.913,738.72C675.033,738.72 683.193,731.04 683.193,721.92C683.193,712.32 675.033,704.64 665.913,704.64L615.993,704.64L638.553,641.28C641.913,632.16 637.593,622.56 628.473,619.2C619.353,615.84 609.753,620.64 606.393,629.76L579.033,704.64L547.833,704.64C538.233,704.64 530.553,712.32 530.553,721.92C530.553,731.04 538.233,738.72 547.833,738.72L566.553,738.72L534.628,826.512C533.968,827.557 533.404,828.695 532.953,829.92L516.633,875.04C512.793,884.64 506.073,895.2 497.433,904.32C488.793,913.44 477.753,919.68 467.673,919.68C464.313,919.68 461.913,919.2 460.953,918.72C459.993,918.24 459.513,917.28 459.033,916.8C455.193,911.04 455.673,898.56 459.513,887.04L492.633,796.8C499.833,776.16 498.873,756 487.833,740.64C477.753,725.76 461.913,718.56 441.273,718.56C422.073,718.56 402.393,725.76 385.593,738.72C385.113,738.24 384.633,737.28 384.633,736.32L383.193,734.4C375.513,723.84 364.953,718.56 351.033,718.56C341.433,718.56 333.753,726.24 333.753,735.84C333.753,744.96 341.433,752.64 351.033,752.64C353.433,752.64 354.873,753.12 354.873,754.08C355.833,755.52 356.313,758.4 356.313,761.76C356.313,765.6 355.353,769.92 353.913,774.24C353.433,774.72 353.433,775.2 353.433,775.68C353.433,776.16 353.433,777.12 352.953,777.6L351.513,780.96C351.033,782.4 350.553,783.84 350.073,785.28L296.793,931.2C293.433,940.32 297.753,949.92 306.873,953.28C309.273,953.76 311.673,954.24 313.113,954.24C320.313,954.24 326.553,950.4 328.953,943.2L382.233,796.8C386.553,784.8 395.193,773.76 406.233,765.6C417.273,757.92 429.753,752.64 441.273,752.64C447.513,752.64 455.193,754.08 459.513,760.32C463.833,766.08 463.833,774.24 460.473,785.28L427.353,875.04C423.993,884.16 422.073,894.72 422.073,905.76C422.073,916.8 424.473,927.36 430.713,936.48C438.873,947.52 451.833,954.24 467.673,954.24C488.313,954.24 506.073,943.68 519.993,930.24C521.436,928.846 522.833,927.416 524.185,925.956C524.969,927.257 525.812,928.526 526.713,929.76C534.393,940.8 550.233,954.24 582.393,954.24C614.006,954.24 641.909,939.398 666.557,910.169C668.476,915.534 671.089,920.657 674.553,925.44C687.993,944.64 708.633,954.24 735.993,954.24C771.033,954.24 805.593,943.2 833.913,924.96C862.233,906.72 884.313,881.28 895.353,851.04C895.744,849.977 896.025,848.907 896.201,847.841L919.833,782.4L922.713,773.76C923.673,770.88 924.633,768 925.593,765.6L944.793,773.28L945.753,773.76C949.113,775.2 957.753,779.04 960.153,784.32C961.113,785.28 961.113,787.2 959.673,789.6L928.473,876C925.113,885.12 922.713,895.68 923.193,906.72C923.193,917.76 925.593,928.32 931.833,937.44C939.993,948.96 953.433,955.2 968.793,955.2C980.286,955.2 990.927,952.073 1000.48,947.054C1004.32,951.845 1009.12,954.24 1014.87,954.24C1047.51,954.24 1081.11,943.2 1112.31,922.56C1113.75,926.4 1116.15,930.24 1119.51,934.56C1127.19,943.68 1140.63,954.24 1167.03,954.24C1190.07,954.24 1210.71,945.6 1227.51,933.12C1233.72,928.51 1239.27,923.376 1244.09,917.934C1253.07,938.722 1270.83,954.24 1298.55,954.24C1323.03,954.24 1348.47,941.28 1371.03,920.64C1372.47,926.4 1374.87,931.68 1378.23,936.48C1386.39,948.48 1398.87,954.24 1415.19,954.24C1435.83,954.24 1453.59,943.68 1467.51,930.24C1469.03,928.771 1470.5,927.262 1471.92,925.723C1473.03,927.927 1474.28,930.075 1475.67,932.16C1482.87,942.24 1496.31,954.24 1521.27,954.24C1545.27,954.24 1567.83,944.16 1589.43,923.52C1606.23,906.72 1619.67,886.56 1627.35,865.92L1631.44,854.553C1632.23,853.363 1632.95,852.032 1633.59,850.56L1654.71,789.12C1662.39,798.24 1671.51,806.88 1680.63,816L1697.43,832.8C1708.47,844.8 1717.59,856.32 1723.35,867.36C1728.63,878.88 1728.15,888.96 1720.47,899.04L1718.55,897.12C1717.59,896.64 1716.63,895.68 1716.15,895.2C1691.67,874.56 1667.19,877.92 1651.83,887.52C1636.95,897.6 1629.27,914.88 1633.59,929.76C1636.95,940.8 1644.63,947.04 1652.79,950.4C1660.95,953.76 1669.11,954.24 1674.39,954.24C1685.43,954.24 1699.83,953.28 1714.71,947.04C1719.99,950.88 1727.19,954.24 1738.23,954.24C1759.83,954.24 1779.03,943.2 1793.43,927.84C1807.83,912.48 1818.39,892.32 1824.15,873.6L1830.87,854.4C1832.31,850.08 1833.27,847.2 1833.75,845.76L1837.11,838.08C1840.47,828.96 1836.15,819.84 1827.03,816.48C1817.91,813.12 1810.23,817.44 1804.95,826.56C1804.47,827.04 1804.47,827.52 1803.99,828.48L1801.59,833.76C1799.67,839.04 1796.79,847.68 1791.51,863.04C1788.15,872.16 1783.35,883.68 1776.15,894.24C1768.47,904.8 1759.83,913.92 1748.79,917.76C1755.99,907.68 1760.31,897.6 1761.27,886.56C1762.71,868.8 1755.51,851.52 1744.47,835.68C1732.95,819.84 1718.55,804.96 1704.63,791.52C1693.11,780 1682.55,769.44 1675.35,759.84C1672.95,756.48 1671.03,753.6 1670.55,751.2C1669.59,748.8 1669.11,747.36 1669.59,746.4L1671.51,741.6C1674.87,732.48 1670.07,722.88 1660.95,719.52C1651.83,716.16 1642.23,720.96 1638.87,730.08L1605.89,825.272C1604.85,826.636 1603.99,828.192 1603.35,829.92L1594.71,853.92C1588.95,869.76 1578.39,885.6 1565.43,898.56C1555.35,908.16 1539.99,919.68 1521.27,919.68C1510.23,919.68 1506.39,915.84 1503.99,912.48C1500.63,907.68 1498.71,900.96 1498.71,892.32C1498.71,884.16 1500.63,875.04 1503.99,865.92L1585.59,641.28C1588.95,632.16 1584.63,622.56 1575.51,619.2C1566.39,615.84 1556.79,620.64 1553.43,629.76L1471.35,853.92C1470.38,856.824 1469.48,859.881 1468.66,863.052ZM181.113,954.24C202.233,954.24 222.393,947.52 238.713,935.52C255.033,924 267.513,907.2 274.713,887.52L347.193,687.36C349.593,681.12 351.993,675.84 355.353,671.04C361.113,661.44 366.873,655.68 370.713,651.84L373.593,649.44C379.833,645.6 382.713,637.44 380.793,630.24C378.393,623.04 371.673,618.24 363.993,618.24L237.273,618.24C222.393,618.24 209.433,624.48 199.833,634.08C190.233,643.68 184.473,656.64 184.473,671.52C184.473,686.4 190.233,699.36 199.833,708.96C209.433,718.56 222.393,724.32 237.273,724.32C251.673,724.32 264.153,719.04 274.713,708.48C278.073,705.12 279.993,701.28 279.993,696.48C279.993,687.36 271.833,679.2 262.713,679.2C257.913,679.2 253.593,681.12 250.233,684.48C246.873,687.84 242.553,689.76 237.273,689.76C227.193,689.76 219.033,681.6 219.033,671.52C219.033,661.44 227.193,652.8 237.273,652.8L326.073,652.8C321.753,659.04 317.913,666.24 314.553,675.36L242.553,876C233.433,902.88 208.473,919.68 181.113,919.68C163.353,919.68 147.033,912.48 135.513,900.48C123.513,888.96 116.313,872.64 116.313,854.88C116.313,837.12 123.513,820.8 135.513,808.8C147.033,797.28 163.353,790.08 181.113,790.08C197.913,790.08 214.233,796.8 226.233,808.32C229.593,811.68 233.913,813.6 238.713,813.6C247.833,813.6 255.513,805.44 255.513,795.84C255.513,791.52 253.593,787.2 250.233,783.84C231.513,765.12 207.513,755.52 181.113,755.52C153.753,755.52 128.793,767.04 111.033,784.8C93.273,802.56 81.753,827.52 81.753,854.88C81.753,882.24 93.273,907.2 111.033,924.96C128.793,942.72 153.753,954.24 181.113,954.24ZM1298.55,920.16C1289.91,920.16 1283.19,916.8 1278.39,910.08C1270.71,899.04 1266.39,875.52 1279.35,842.4C1288.95,815.52 1304.79,792.96 1322.07,777.12C1338.87,761.76 1356.63,752.64 1371.51,752.64C1380.15,752.64 1386.87,756 1391.67,762.72C1399.35,773.76 1403.19,797.28 1391.19,830.4C1381.59,857.28 1365.27,879.84 1348.47,895.2C1331.19,911.04 1312.47,920.16 1298.55,920.16ZM1674.39,919.68C1671.03,919.68 1668.63,919.68 1667.67,919.2C1669.11,917.76 1670.07,916.8 1673.43,915.36C1678.71,913.44 1683.99,914.4 1690.23,918.72C1685.91,919.2 1680.63,919.68 1674.39,919.68ZM704.457,843.774C722.915,841.813 739.022,837.051 752.313,830.88C765.273,824.64 774.873,817.92 782.073,812.16C806.553,793.44 817.113,773.28 817.113,762.24C817.113,760.8 817.113,758.4 814.713,756.48C813.273,755.52 811.353,754.56 808.953,753.6C806.073,753.12 802.233,752.64 796.953,752.64C782.073,752.64 764.313,761.76 747.513,777.12C730.867,792.379 715.557,813.873 705.873,839.462C705.715,840.122 705.515,840.782 705.273,841.44C705.037,842.148 704.764,842.928 704.457,843.774Z" style="fill:rgb(0,67,6);"/>
        </g>
        <g transform="matrix(1.63234,0,0,1.63234,-492.64,-124.041)">
            <path d="M833.433,198.72C840.633,179.52 838.713,160.8 829.113,145.92C819.033,132 804.633,124.8 784.953,124.8C765.273,124.8 744.633,132.96 727.833,147.84C727.353,146.4 726.873,145.92 726.873,145.92C716.793,132 702.393,124.8 682.713,124.8C660.153,124.8 636.153,136.32 618.873,154.08C618.393,152.64 617.433,151.68 616.953,150.72C616.473,149.76 615.513,148.8 615.033,147.36C607.833,137.28 592.953,124.8 565.593,124.8C550.713,124.8 538.233,131.04 528.633,140.64C519.033,150.24 513.273,163.2 513.273,178.08C513.273,192.96 519.033,205.92 528.633,215.52C538.233,225.12 550.713,230.88 565.593,230.88C575.193,230.88 582.873,223.2 582.873,213.6C582.873,204 575.193,196.32 565.593,196.32C555.513,196.32 547.353,188.16 547.353,178.08C547.353,168 555.993,159.36 565.593,159.36C573.273,159.36 578.553,160.32 581.433,162.24C584.313,164.64 586.233,166.08 586.713,167.52C594.393,178.56 592.953,203.04 581.913,233.76L528.153,382.56C519.033,409.44 494.073,426.72 466.713,426.72C448.953,426.72 432.633,419.52 421.113,407.52C409.113,396 401.913,379.2 401.913,361.44C401.913,343.68 409.113,327.36 421.113,315.36C432.633,303.84 448.953,296.64 466.713,296.64C484.473,296.64 499.353,302.88 511.833,315.36C515.193,318.72 519.513,320.16 524.313,320.16C528.633,320.16 532.953,318.24 536.313,314.88C543.513,307.68 543.033,297.6 535.833,290.4C517.113,271.68 493.113,262.56 466.713,262.56C439.353,262.56 414.393,273.6 396.633,291.36C378.873,309.12 367.353,334.08 367.353,361.44C367.353,388.8 378.873,413.76 396.633,431.52C414.393,449.28 439.353,460.8 466.713,460.8C487.833,460.8 507.513,454.08 524.313,442.08C541.113,430.56 553.113,413.76 560.313,394.08L614.073,245.28L620.313,226.08L629.913,198.72C633.753,187.68 641.913,178.08 651.513,170.88C661.113,163.68 672.633,159.36 682.713,159.36C687.993,159.36 694.713,160.32 698.553,165.6C701.913,170.4 702.393,177.6 699.033,186.72L609.753,433.44C606.393,442.56 611.193,452.16 620.313,455.52C621.753,456 623.673,456.48 626.073,456.48C633.273,456.48 639.993,452.64 642.393,445.44L729.753,203.04C731.193,201.12 731.673,199.68 732.153,198.72C735.993,187.68 744.153,178.08 753.753,170.88C763.353,163.68 774.873,159.36 784.953,159.36C790.233,159.36 796.953,160.32 800.793,165.6C804.153,170.4 804.633,177.6 801.273,186.72L711.993,433.44C709.593,441.12 708.153,448.8 708.153,456C708.153,473.28 715.353,489.12 726.873,500.16C737.913,511.68 753.753,518.88 771.033,518.88C780.633,518.88 788.313,511.2 788.313,502.08C788.313,492.48 780.633,484.8 771.033,484.8C755.193,484.8 742.233,471.84 742.233,456C742.233,452.64 742.713,448.8 744.153,445.44L744.633,445.44L833.433,198.72ZM1013.63,334.427C1013.19,335.224 1012.8,336.069 1012.47,336.96L996.153,382.08C990.873,396.96 982.233,407.52 973.113,415.2C963.513,422.88 953.433,426.72 947.193,426.72C943.833,426.72 941.913,426.24 940.953,425.28C939.513,424.8 939.033,423.84 938.553,423.36C934.713,418.08 935.193,405.12 939.033,393.6L992.313,248.16C995.673,239.04 990.873,229.44 981.753,226.08C972.633,222.72 963.513,227.52 960.153,236.64L906.873,382.08L906.873,382.56C902.553,394.56 893.913,405.6 882.873,413.28C871.833,421.44 858.873,426.72 847.353,426.72C841.593,426.72 833.433,425.28 829.113,419.04C824.793,412.8 824.793,404.16 828.633,394.08L881.433,248.16C884.793,239.04 880.473,229.44 871.353,226.08C862.233,222.72 852.633,227.52 849.273,236.64L795.993,382.56C788.793,404.16 790.233,422.88 801.273,438.72C810.873,453.6 827.673,460.8 847.353,460.8C868.473,460.8 889.593,451.68 907.353,437.76C907.833,438.72 908.313,439.68 908.793,440.16L910.233,443.04C918.393,455.04 930.873,460.8 947.193,460.8C967.833,460.8 985.593,450.24 999.513,436.8C1013.43,423.36 1023.03,406.56 1028.31,393.6L1040.04,361.184C1040.85,359.976 1041.58,358.621 1042.23,357.12L1063.35,295.68C1071.03,304.8 1080.15,313.44 1089.27,322.56L1106.07,339.36C1117.11,351.36 1126.23,362.88 1131.99,373.92C1137.27,385.44 1136.79,395.52 1129.11,405.6L1127.19,403.68C1126.23,403.2 1125.27,402.24 1124.79,401.76C1100.31,381.12 1075.83,384.48 1060.47,394.08C1045.59,404.16 1037.91,421.44 1042.23,436.32C1045.59,447.36 1053.27,453.6 1061.43,456.96C1069.59,460.32 1077.75,460.8 1083.03,460.8C1094.07,460.8 1108.47,459.84 1123.35,453.6C1128.63,457.44 1135.83,460.8 1146.87,460.8C1165.97,460.8 1183.2,452.167 1196.89,439.547C1197.6,440.737 1198.36,441.903 1199.19,443.04C1206.87,454.56 1220.31,460.8 1235.67,460.8C1256.31,460.8 1274.07,450.24 1287.99,436.8C1292.17,432.763 1295.97,428.465 1299.37,424.076C1300.91,427.068 1302.59,429.705 1304.31,432C1317.27,450.72 1338.87,460.8 1363.83,460.8C1399.83,460.8 1436.79,447.84 1467.99,427.68C1498.71,407.52 1523.19,379.2 1534.71,348.48C1538.07,339.36 1533.75,329.76 1524.63,326.4C1515.51,323.04 1505.91,327.84 1502.55,336.96C1493.43,361.44 1473.27,383.52 1448.31,399.84C1422.87,416.16 1392.63,426.72 1363.83,426.72C1355.67,426.72 1341.27,425.28 1332.15,412.32C1323.03,398.88 1323.51,376.32 1333.59,348.96C1343.19,322.08 1359.03,299.52 1376.31,283.68C1393.11,268.32 1411.35,259.2 1426.23,259.2C1433.43,259.2 1438.23,260.64 1440.63,264C1442.07,265.44 1442.55,266.88 1442.55,268.8C1442.55,271.2 1442.55,273.12 1442.07,274.56C1440.63,284.16 1447.35,292.8 1456.95,294.24C1466.07,295.68 1474.71,288.96 1476.15,279.36C1479.51,260.64 1472.31,248.64 1466.55,241.44C1457.43,230.4 1443.99,225.12 1426.23,225.12C1402.71,225.12 1377.27,237.12 1354.71,257.28C1332.62,276.607 1314.51,303.435 1302.9,333.111C1302.12,334.284 1301.46,335.572 1300.95,336.96L1284.63,381.6C1278.87,396.48 1270.23,407.52 1261.11,415.2C1251.99,422.88 1241.91,426.72 1235.67,426.72C1232.31,426.72 1230.39,426.24 1229.43,425.28C1227.99,424.8 1227.03,423.84 1226.55,423.36C1223.39,417.933 1223.63,406.54 1226.88,396.006C1229.21,390.703 1231.19,385.375 1232.79,380.16L1237.36,367.117L1244.62,347.236L1245.75,344.64C1246.07,343.79 1246.31,342.94 1246.49,342.094L1280.79,248.16C1284.15,239.04 1279.35,229.92 1270.23,226.56C1261.11,223.2 1251.99,227.52 1248.63,236.64L1211.76,336.958L1210.23,340.32C1209.08,343.503 1207.57,347.906 1205.4,354.266L1195.54,381.101C1192.71,387.513 1189.2,394.336 1184.79,400.8C1177.11,411.36 1168.47,420.48 1157.43,424.32C1164.63,414.24 1168.95,404.16 1169.91,393.12C1171.35,375.36 1164.15,358.08 1153.11,342.24C1141.59,326.4 1127.19,311.52 1113.27,298.08C1101.75,286.56 1091.19,276 1083.99,266.4C1081.59,263.04 1079.67,260.16 1079.19,257.76C1078.23,255.36 1077.75,253.92 1078.23,252.96L1080.15,248.16C1083.51,239.04 1078.71,229.44 1069.59,226.08C1060.47,222.72 1050.87,227.52 1047.51,236.64L1013.63,334.427ZM1083.03,426.24C1079.67,426.24 1077.27,426.24 1076.31,425.76C1077.75,424.32 1078.71,423.36 1082.07,421.92C1087.35,420 1092.63,420.96 1098.87,425.28C1094.55,425.76 1089.27,426.24 1083.03,426.24ZM1281.27,195.84C1283.67,196.32 1285.59,196.8 1287.03,196.8C1294.23,196.8 1300.95,192.48 1302.87,185.28L1309.59,168.48C1312.95,159.36 1308.15,150.24 1299.03,146.88C1289.91,143.52 1280.79,147.84 1277.43,156.96L1271.19,173.76C1267.83,182.88 1272.15,192.48 1281.27,195.84Z" style="fill:none;stroke:rgb(243,238,206);stroke-width:31.79px;"/>
            <path d="M833.433,198.72C840.633,179.52 838.713,160.8 829.113,145.92C819.033,132 804.633,124.8 784.953,124.8C765.273,124.8 744.633,132.96 727.833,147.84C727.353,146.4 726.873,145.92 726.873,145.92C716.793,132 702.393,124.8 682.713,124.8C660.153,124.8 636.153,136.32 618.873,154.08C618.393,152.64 617.433,151.68 616.953,150.72C616.473,149.76 615.513,148.8 615.033,147.36C607.833,137.28 592.953,124.8 565.593,124.8C550.713,124.8 538.233,131.04 528.633,140.64C519.033,150.24 513.273,163.2 513.273,178.08C513.273,192.96 519.033,205.92 528.633,215.52C538.233,225.12 550.713,230.88 565.593,230.88C575.193,230.88 582.873,223.2 582.873,213.6C582.873,204 575.193,196.32 565.593,196.32C555.513,196.32 547.353,188.16 547.353,178.08C547.353,168 555.993,159.36 565.593,159.36C573.273,159.36 578.553,160.32 581.433,162.24C584.313,164.64 586.233,166.08 586.713,167.52C594.393,178.56 592.953,203.04 581.913,233.76L528.153,382.56C519.033,409.44 494.073,426.72 466.713,426.72C448.953,426.72 432.633,419.52 421.113,407.52C409.113,396 401.913,379.2 401.913,361.44C401.913,343.68 409.113,327.36 421.113,315.36C432.633,303.84 448.953,296.64 466.713,296.64C484.473,296.64 499.353,302.88 511.833,315.36C515.193,318.72 519.513,320.16 524.313,320.16C528.633,320.16 532.953,318.24 536.313,314.88C543.513,307.68 543.033,297.6 535.833,290.4C517.113,271.68 493.113,262.56 466.713,262.56C439.353,262.56 414.393,273.6 396.633,291.36C378.873,309.12 367.353,334.08 367.353,361.44C367.353,388.8 378.873,413.76 396.633,431.52C414.393,449.28 439.353,460.8 466.713,460.8C487.833,460.8 507.513,454.08 524.313,442.08C541.113,430.56 553.113,413.76 560.313,394.08L614.073,245.28L620.313,226.08L629.913,198.72C633.753,187.68 641.913,178.08 651.513,170.88C661.113,163.68 672.633,159.36 682.713,159.36C687.993,159.36 694.713,160.32 698.553,165.6C701.913,170.4 702.393,177.6 699.033,186.72L609.753,433.44C606.393,442.56 611.193,452.16 620.313,455.52C621.753,456 623.673,456.48 626.073,456.48C633.273,456.48 639.993,452.64 642.393,445.44L729.753,203.04C731.193,201.12 731.673,199.68 732.153,198.72C735.993,187.68 744.153,178.08 753.753,170.88C763.353,163.68 774.873,159.36 784.953,159.36C790.233,159.36 796.953,160.32 800.793,165.6C804.153,170.4 804.633,177.6 801.273,186.72L711.993,433.44C709.593,441.12 708.153,448.8 708.153,456C708.153,473.28 715.353,489.12 726.873,500.16C737.913,511.68 753.753,518.88 771.033,518.88C780.633,518.88 788.313,511.2 788.313,502.08C788.313,492.48 780.633,484.8 771.033,484.8C755.193,484.8 742.233,471.84 742.233,456C742.233,452.64 742.713,448.8 744.153,445.44L744.633,445.44L833.433,198.72ZM1013.63,334.427C1013.19,335.224 1012.8,336.069 1012.47,336.96L996.153,382.08C990.873,396.96 982.233,407.52 973.113,415.2C963.513,422.88 953.433,426.72 947.193,426.72C943.833,426.72 941.913,426.24 940.953,425.28C939.513,424.8 939.033,423.84 938.553,423.36C934.713,418.08 935.193,405.12 939.033,393.6L992.313,248.16C995.673,239.04 990.873,229.44 981.753,226.08C972.633,222.72 963.513,227.52 960.153,236.64L906.873,382.08L906.873,382.56C902.553,394.56 893.913,405.6 882.873,413.28C871.833,421.44 858.873,426.72 847.353,426.72C841.593,426.72 833.433,425.28 829.113,419.04C824.793,412.8 824.793,404.16 828.633,394.08L881.433,248.16C884.793,239.04 880.473,229.44 871.353,226.08C862.233,222.72 852.633,227.52 849.273,236.64L795.993,382.56C788.793,404.16 790.233,422.88 801.273,438.72C810.873,453.6 827.673,460.8 847.353,460.8C868.473,460.8 889.593,451.68 907.353,437.76C907.833,438.72 908.313,439.68 908.793,440.16L910.233,443.04C918.393,455.04 930.873,460.8 947.193,460.8C967.833,460.8 985.593,450.24 999.513,436.8C1013.43,423.36 1023.03,406.56 1028.31,393.6L1040.04,361.184C1040.85,359.976 1041.58,358.621 1042.23,357.12L1063.35,295.68C1071.03,304.8 1080.15,313.44 1089.27,322.56L1106.07,339.36C1117.11,351.36 1126.23,362.88 1131.99,373.92C1137.27,385.44 1136.79,395.52 1129.11,405.6L1127.19,403.68C1126.23,403.2 1125.27,402.24 1124.79,401.76C1100.31,381.12 1075.83,384.48 1060.47,394.08C1045.59,404.16 1037.91,421.44 1042.23,436.32C1045.59,447.36 1053.27,453.6 1061.43,456.96C1069.59,460.32 1077.75,460.8 1083.03,460.8C1094.07,460.8 1108.47,459.84 1123.35,453.6C1128.63,457.44 1135.83,460.8 1146.87,460.8C1165.97,460.8 1183.2,452.167 1196.89,439.547C1197.6,440.737 1198.36,441.903 1199.19,443.04C1206.87,454.56 1220.31,460.8 1235.67,460.8C1256.31,460.8 1274.07,450.24 1287.99,436.8C1292.17,432.763 1295.97,428.465 1299.37,424.076C1300.91,427.068 1302.59,429.705 1304.31,432C1317.27,450.72 1338.87,460.8 1363.83,460.8C1399.83,460.8 1436.79,447.84 1467.99,427.68C1498.71,407.52 1523.19,379.2 1534.71,348.48C1538.07,339.36 1533.75,329.76 1524.63,326.4C1515.51,323.04 1505.91,327.84 1502.55,336.96C1493.43,361.44 1473.27,383.52 1448.31,399.84C1422.87,416.16 1392.63,426.72 1363.83,426.72C1355.67,426.72 1341.27,425.28 1332.15,412.32C1323.03,398.88 1323.51,376.32 1333.59,348.96C1343.19,322.08 1359.03,299.52 1376.31,283.68C1393.11,268.32 1411.35,259.2 1426.23,259.2C1433.43,259.2 1438.23,260.64 1440.63,264C1442.07,265.44 1442.55,266.88 1442.55,268.8C1442.55,271.2 1442.55,273.12 1442.07,274.56C1440.63,284.16 1447.35,292.8 1456.95,294.24C1466.07,295.68 1474.71,288.96 1476.15,279.36C1479.51,260.64 1472.31,248.64 1466.55,241.44C1457.43,230.4 1443.99,225.12 1426.23,225.12C1402.71,225.12 1377.27,237.12 1354.71,257.28C1332.62,276.607 1314.51,303.435 1302.9,333.111C1302.12,334.284 1301.46,335.572 1300.95,336.96L1284.63,381.6C1278.87,396.48 1270.23,407.52 1261.11,415.2C1251.99,422.88 1241.91,426.72 1235.67,426.72C1232.31,426.72 1230.39,426.24 1229.43,425.28C1227.99,424.8 1227.03,423.84 1226.55,423.36C1223.39,417.933 1223.63,406.54 1226.88,396.006C1229.21,390.703 1231.19,385.375 1232.79,380.16L1237.36,367.117L1244.62,347.236L1245.75,344.64C1246.07,343.79 1246.31,342.94 1246.49,342.094L1280.79,248.16C1284.15,239.04 1279.35,229.92 1270.23,226.56C1261.11,223.2 1251.99,227.52 1248.63,236.64L1211.76,336.958L1210.23,340.32C1209.08,343.503 1207.57,347.906 1205.4,354.266L1195.54,381.101C1192.71,387.513 1189.2,394.336 1184.79,400.8C1177.11,411.36 1168.47,420.48 1157.43,424.32C1164.63,414.24 1168.95,404.16 1169.91,393.12C1171.35,375.36 1164.15,358.08 1153.11,342.24C1141.59,326.4 1127.19,311.52 1113.27,298.08C1101.75,286.56 1091.19,276 1083.99,266.4C1081.59,263.04 1079.67,260.16 1079.19,257.76C1078.23,255.36 1077.75,253.92 1078.23,252.96L1080.15,248.16C1083.51,239.04 1078.71,229.44 1069.59,226.08C1060.47,222.72 1050.87,227.52 1047.51,236.64L1013.63,334.427ZM1083.03,426.24C1079.67,426.24 1077.27,426.24 1076.31,425.76C1077.75,424.32 1078.71,423.36 1082.07,421.92C1087.35,420 1092.63,420.96 1098.87,425.28C1094.55,425.76 1089.27,426.24 1083.03,426.24ZM1281.27,195.84C1283.67,196.32 1285.59,196.8 1287.03,196.8C1294.23,196.8 1300.95,192.48 1302.87,185.28L1309.59,168.48C1312.95,159.36 1308.15,150.24 1299.03,146.88C1289.91,143.52 1280.79,147.84 1277.43,156.96L1271.19,173.76C1267.83,182.88 1272.15,192.48 1281.27,195.84Z" style="fill:rgb(0,67,6);"/>
        </g>
    </g>
</svg>
